# xmcd CD database file
#
# Track frame offsets:
#	183
#	18170
#	31170
#	52100
#	60608
#	76075
#	91090
#	107075
#	119263
#	130573
#	147378
#	162023
#	175860
#	199530
#	210195
#	225098
#	237773
#	252070
#	282070
#	304750
#
# Disc length: 4510 seconds
#
# Revision: 0
# Processed by: cddbd v1.5.1PL0 Copyright (c) Steve Scherf et al.
# Submitted via: CDex 1.51
#
DISCID=eb119c14
DTITLE=Tav Falco's Panther Burns - Midnight in Memphis
DYEAR=1989
DGENRE=Blues
TTITLE0=Oh how she dances
TTITLE1=Bertha Lou
TTITLE2=Shade tree mechanic
TTITLE3=With your love
TTITLE4=Jungle Rock
TTITLE5=It's only make believe
TTITLE6=Big Road Blues
TTITLE7=Goldfinger
TTITLE8=She's the one that's got it
TTITLE9=Memphis Beat
TTITLE10=Love Whip
TTITLE11=The world we knew
TTITLE12=Ditch Diggin'
TTITLE13=Girl after girl
TTITLE14=Do the robot
TTITLE15=Same thing
TTITLE16=Drop your mask (Tango)
TTITLE17=Train kept a-Rolling
TTITLE18=Red headed woman
TTITLE19=Bourgeois Blues
EXTD=YEAR: 1989
EXTT0=
EXTT1=
EXTT2=
EXTT3=
EXTT4=
EXTT5=
EXTT6=
EXTT7=
EXTT8=
EXTT9=
EXTT10=
EXTT11=
EXTT12=
EXTT13=
EXTT14=
EXTT15=
EXTT16=
EXTT17=
EXTT18=
EXTT19=
PLAYORDER=
